<svg id="svg" xmlns="http://www.w3.org/2000/svg" xmlns:xlink="http://www.w3.org/1999/xlink" width="400" height="400" viewBox="0, 0, 400,400"><g id="svgg"><path id="path0" d="M188.017 45.309 C 174.896 48.748,167.463 62.859,171.990 75.735 C 177.714 92.013,198.434 96.646,210.604 84.370 C 227.351 67.477,211.042 39.274,188.017 45.309 M253.516 107.590 C 234.235 111.669,225.238 133.612,236.129 149.995 C 249.108 169.517,279.754 164.252,285.572 141.502 C 290.562 121.993,273.042 103.459,253.516 107.590 M188.936 110.792 C 169.961 114.863,163.173 138.597,177.116 152.120 C 190.317 164.924,212.623 158.801,217.550 141.021 C 222.387 123.567,206.689 106.983,188.936 110.792 M125.000 113.525 C 105.012 117.399,100.516 143.917,118.266 153.244 C 136.861 163.016,156.794 143.165,147.035 124.593 C 143.020 116.953,133.078 111.960,125.000 113.525 M321.289 169.940 C 298.128 173.521,286.506 198.931,299.087 218.484 C 312.037 238.612,342.495 237.230,353.483 216.016 C 365.254 193.289,346.244 166.083,321.289 169.940 M254.770 173.082 C 238.827 175.515,227.864 191.008,231.029 206.631 C 236.683 234.536,274.775 238.053,285.438 211.656 C 293.492 191.715,276.091 169.828,254.770 173.082 M190.444 176.201 C 169.876 179.327,161.528 204.464,176.189 219.124 C 189.570 232.505,212.513 226.958,218.131 208.984 C 223.712 191.128,208.755 173.418,190.444 176.201 M125.088 179.350 C 107.184 181.945,99.861 204.285,112.741 217.016 C 122.377 226.539,138.462 225.247,146.257 214.323 C 157.614 198.408,144.384 176.553,125.088 179.350 M59.809 182.464 C 49.916 183.703,42.360 193.700,43.774 203.681 C 46.010 219.471,64.888 225.930,75.969 214.696 C 88.895 201.591,78.154 180.167,59.809 182.464 M255.593 240.663 C 233.083 243.284,223.443 271.027,239.440 287.149 C 256.967 304.813,286.121 292.835,286.121 267.969 C 286.121 251.005,272.375 238.709,255.593 240.663 M187.891 244.343 C 169.637 249.326,163.623 271.786,176.954 285.189 C 192.190 300.506,218.393 289.533,218.354 267.852 C 218.325 252.127,202.922 240.240,187.891 244.343 M121.852 247.768 C 99.045 255.544,104.271 289.063,128.291 289.063 C 152.857 289.063,157.613 254.512,134.011 247.505 C 130.798 246.551,125.058 246.676,121.852 247.768 M187.695 312.036 C 170.387 317.186,164.946 338.489,177.689 351.212 C 191.883 365.384,215.956 356.262,217.424 336.155 C 218.576 320.385,202.760 307.553,187.695 312.036 " stroke="none" fill="#000000" fill-rule="evenodd"></path></g></svg>